<svg width="48" height="48" viewBox="0 0 48 48" fill="none" xmlns="http://www.w3.org/2000/svg">
<path d="M29.1952 28.5671C28.7086 29.4181 28.0057 30.1254 27.1576 30.6171C26.3095 31.1089 25.3465 31.3676 24.3662 31.3671C22.8915 31.3671 21.4773 30.7813 20.4346 29.7386C19.3919 28.6959 18.8062 27.2817 18.8062 25.8071V22.1931C18.8062 20.7185 19.3919 19.3042 20.4346 18.2615C21.4773 17.2188 22.8915 16.6331 24.3662 16.6331C25.3445 16.6325 26.3057 16.8902 27.1525 17.38C27.9994 17.8699 28.7019 18.5747 29.1892 19.4231" stroke="white" stroke-linecap="round" stroke-linejoin="round"/>
<path d="M24 45.5C35.8741 45.5 45.5 35.8741 45.5 24C45.5 12.1259 35.8741 2.5 24 2.5C12.1259 2.5 2.5 12.1259 2.5 24C2.5 35.8741 12.1259 45.5 24 45.5Z" stroke="white" stroke-linecap="round" stroke-linejoin="round"/>
</svg>
